<svg width="46" height="46" viewBox="0 0 46 46" fill="none" xmlns="http://www.w3.org/2000/svg">
<g clip-path="url(#clip0_514_8064)">
<rect x="0.535156" y="0.400391" width="45.0201" height="44.3172" rx="10.7166" fill="#F16623"/>
<path d="M29.2425 14.8586V10.9577C29.2425 10.9577 25.2504 10.9199 24.9815 10.9199C23.1766 10.9199 20.5839 12.9701 20.5839 15.2976V19.4736H16.8481V23.9017H20.5335V34.8899H24.9079V23.8512H28.7613L29.2425 19.5156H24.9478V16.3458C24.9425 16.1527 24.9753 15.9604 25.0444 15.78C25.1134 15.5995 25.2174 15.4345 25.3502 15.2942C25.4831 15.1539 25.6423 15.0412 25.8188 14.9625C25.9953 14.8838 26.1855 14.8406 26.3787 14.8355C26.9586 14.8355 29.2425 14.8586 29.2425 14.8586Z" fill="white"/>
</g>
<defs>
<clipPath id="clip0_514_8064">
<rect width="45.0201" height="45.0097" fill="white" transform="translate(0.535156 0.400391)"/>
</clipPath>
</defs>
</svg>
