<svg width="203" height="66" viewBox="0 0 203 66" fill="none" xmlns="http://www.w3.org/2000/svg">
<g clip-path="url(#clip0_514_8076)">
<path d="M107.991 45.6074L87.2449 65.1871H66.8999C73.0988 59.3465 78.7589 54.0612 84.3657 48.7198C89.9108 43.4372 95.4053 38.0986 101.144 32.5693C95.8122 22.1949 90.4383 11.7027 84.7137 0.554376C91.6478 0.273986 98.0656 0.456242 104.865 0.416988L115.026 19.4835L134.987 0.638489H155.377L121.68 32.6618C127.205 43.3167 132.7 53.907 138.475 65.0441C134.72 65.6385 131.459 65.288 128.224 65.3553C125.036 65.4198 121.848 65.3553 118.346 65.3553L107.991 45.6074Z" fill="#F16623"/>
<path d="M144.991 64.7667C150.719 43.3673 156.435 22.0044 162.216 0.400391H179.314C177.041 8.85134 174.776 17.2013 172.548 25.557C170.334 33.8677 168.154 42.1841 165.878 50.7921C169.994 51.6585 174.033 51.1005 178.026 51.2043C181.974 51.3052 185.928 51.2267 189.882 51.2267H202.58C201.211 56.027 199.984 60.3365 198.755 64.6433C195.607 65.5378 150.171 65.7088 144.991 64.7667Z" fill="white"/>
<path d="M15.6165 0.400391H80.3332C76.6066 16.3826 72.9136 32.2162 69.2038 48.1284H27.4728C28.6177 43.2552 29.7177 38.539 30.857 33.7219H55.5516C57.0221 27.4384 58.4673 21.2726 59.9097 15.1124C58.4027 14.619 34.3003 14.4227 29.2323 14.8517C25.3036 31.5966 21.3103 48.4172 17.4209 65.4004H0.533203C1.9363 58.071 3.85575 50.9323 5.48335 43.7375C7.11095 36.5427 8.80309 29.3983 10.4812 22.2315C12.1705 15.0115 13.8767 7.79147 15.6165 0.400391Z" fill="white"/>
</g>
<defs>
<clipPath id="clip0_514_8076">
<rect width="202.047" height="65" fill="white" transform="translate(0.533203 0.400391)"/>
</clipPath>
</defs>
</svg>
