<svg width="672" height="594" viewBox="0 0 672 594" fill="none" xmlns="http://www.w3.org/2000/svg">
<g clip-path="url(#clip0_514_7852)">
<path d="M572.794 261.459C441.157 185.572 228.422 185.572 97.6402 261.459C-33.1412 337.347 -32.4598 460.414 99.177 536.316C230.814 612.218 443.564 612.204 574.36 536.316C705.156 460.429 704.445 337.361 572.794 261.459Z" fill="#FFEFE8"/>
<path d="M615.011 393.256C624.724 387.654 640.41 387.668 650.051 393.256C659.692 398.844 659.648 407.936 649.95 413.524C640.251 419.112 624.536 419.112 614.895 413.524C605.254 407.936 605.297 398.859 615.011 393.256Z" fill="#E4E4E4"/>
<path d="M338.892 401.392L320.93 377.013C319.118 374.553 316.795 372.512 314.12 371.031C311.445 369.549 308.482 368.662 305.432 368.429L278.96 366.402L236.917 340.865L252.633 331.802C252.842 331.672 253.016 331.491 253.136 331.276C253.256 331.06 253.319 330.818 253.319 330.572C253.319 330.325 253.256 330.083 253.136 329.867C253.016 329.652 252.842 329.471 252.633 329.341L246.08 325.635C244.793 324.899 243.337 324.511 241.854 324.511C240.371 324.511 238.914 324.899 237.628 325.635L83.4185 414.639C83.2087 414.768 83.0355 414.95 82.9155 415.165C82.7954 415.38 82.7324 415.623 82.7324 415.869C82.7324 416.116 82.7954 416.358 82.9155 416.573C83.0355 416.789 83.2087 416.97 83.4185 417.1L89.7973 420.777C91.092 421.52 92.5591 421.911 94.0523 421.911C95.5456 421.911 97.0127 421.52 98.3073 420.777L165.213 382.196L206.705 405.953L212.127 421.182C213.794 425.863 216.872 429.913 220.936 432.778C225.001 435.642 229.855 437.179 234.83 437.179H273.538L299.749 452.307L363.219 415.478L338.892 401.392Z" fill="#E4E4E4"/>
<path d="M575.012 378.968C533.057 354.777 465.252 354.777 423.572 378.968C386.734 400.35 382.646 433.444 411.119 457.548C388.14 456.1 364.321 460.443 346.779 470.693C315.972 488.572 316.131 517.555 347.141 535.419C378.151 553.283 428.255 553.298 459.062 535.419C483.562 521.203 488.448 499.951 473.82 482.854C509.136 487.949 548.003 482.535 575.505 466.567C617.243 442.318 616.968 403.101 575.012 378.968Z" fill="#E4E4E4"/>
<path d="M87.9852 445.677C76.9381 439.307 59.0773 439.307 48.1027 445.677C37.1281 452.047 37.1861 462.369 48.2332 468.739C59.2802 475.108 77.1411 475.123 88.1156 468.739C99.0902 462.354 99.0322 452.047 87.9852 445.677Z" fill="#E4E4E4"/>
<path d="M464.803 1.12238L551.599 51.2556C553.067 52.1037 554.286 53.3213 555.136 54.787C555.986 56.2527 556.436 57.9152 556.441 59.6088V146.759C556.399 148.438 555.912 150.075 555.031 151.505C554.15 152.935 552.905 154.107 551.424 154.901C549.942 155.695 548.277 156.083 546.596 156.026C544.916 155.969 543.281 155.469 541.856 154.577L505.613 133.093L504.83 134.353C504.79 134.395 504.746 134.434 504.7 134.468H504.598C503.148 135.409 500.698 136.741 500.133 137.031C500.004 137.073 499.864 137.063 499.742 137.004C499.62 136.944 499.526 136.84 499.48 136.712L496.32 127.751L455.118 104.588C453.639 103.747 452.409 102.53 451.553 101.06C450.697 99.5905 450.247 97.9207 450.247 96.2207V8.88196C450.218 1.93308 460.468 -1.42555 464.803 1.12238Z" fill="#F16623"/>
<path opacity="0.2" d="M504.787 134.309C504.746 134.351 504.703 134.39 504.656 134.425H504.555C503.105 135.366 500.655 136.698 500.089 136.987C500.219 136.957 500.333 136.88 500.408 136.77L503.467 131.819L502.858 131.472L505.555 133.006L504.787 134.309Z" fill="white"/>
<path opacity="0.4" d="M545.597 60.2602C544.973 59.0153 544.094 57.9155 543.016 57.0318C542.647 56.7418 542.26 56.4759 541.857 56.2356L455.046 6.10234C454.557 5.82042 454.002 5.67193 453.438 5.67176C452.873 5.6716 452.318 5.81977 451.829 6.10141C451.34 6.38304 450.934 6.78822 450.651 7.27627C450.368 7.76432 450.219 8.31806 450.218 8.88189C450.218 1.93301 460.468 -1.42561 464.803 1.04993L551.599 51.1832C553.104 52.0485 554.346 53.304 555.194 54.8169L545.597 60.2602Z" fill="white"/>
<path opacity="0.2" d="M546.684 151.681V64.5743C546.682 64.1968 546.657 63.8198 546.612 63.4451C546.446 62.3361 546.103 61.2609 545.597 60.2602L555.194 54.8169C556.008 56.2575 556.437 57.8825 556.441 59.5363V146.687C556.411 148.372 555.934 150.018 555.058 151.458C554.182 152.898 552.938 154.08 551.455 154.882C549.971 155.685 548.301 156.079 546.614 156.026C544.928 155.972 543.286 155.472 541.856 154.577C542.354 154.864 542.92 155.013 543.494 155.008C544.069 155.004 544.632 154.845 545.125 154.55C545.617 154.254 546.022 153.832 546.296 153.328C546.57 152.824 546.704 152.255 546.684 151.681Z" fill="white"/>
<path d="M471.486 41.8891L521.865 70.9441L518.835 105.356C518.661 107.469 517.037 108.251 515.109 107.107L476.517 84.8563C475.742 84.3896 475.067 83.7746 474.531 83.0467L474.603 84.0167C474.833 86.2087 475.551 88.3216 476.705 90.2004C477.859 92.0792 479.419 93.6762 481.272 94.8743L482.954 95.8587C483.599 95.9945 484.217 96.2393 484.78 96.5826C485.435 96.9653 486.043 97.4219 486.593 97.9434L504.729 108.41C505.367 108.548 505.979 108.788 506.541 109.119C507.196 109.535 507.804 110.02 508.353 110.567L512.195 112.782C512.623 113.067 512.978 113.449 513.229 113.897C513.481 114.345 513.624 114.846 513.645 115.359C513.645 116.3 512.978 116.676 512.195 116.199L511.905 116.039C512.325 117.186 512.551 118.395 512.572 119.615C512.572 123.437 509.846 124.986 506.512 123.061C504.758 121.922 503.299 120.386 502.254 118.577C501.208 116.768 500.606 114.738 500.496 112.652C500.466 111.676 500.702 110.711 501.177 109.858L490.144 103.488C490.571 104.633 490.797 105.842 490.811 107.064C490.811 110.886 488.086 112.435 484.751 110.509C482.998 109.371 481.539 107.834 480.493 106.025C479.447 104.216 478.845 102.186 478.735 100.1C478.703 99.0811 478.97 98.0746 479.503 97.2051C475.092 93.5886 472.272 88.393 471.646 82.7282L468.224 36.4024C468.126 35.4173 467.806 34.4672 467.289 33.6225C466.772 32.7779 466.071 32.0605 465.238 31.5237L459.004 27.9189C458.577 27.6331 458.223 27.251 457.971 26.8033C457.719 26.3556 457.576 25.8551 457.554 25.3421C457.554 24.4011 458.221 24.0247 459.004 24.5024L465.252 28.0927C466.898 29.1605 468.284 30.5814 469.309 32.2518C470.335 33.9223 470.975 35.8002 471.182 37.7487L471.486 41.8891ZM497.857 90.9945L497.93 63.3727C497.894 62.6735 497.692 61.9928 497.342 61.3863C496.992 60.7799 496.503 60.2649 495.914 59.8838C494.798 59.2468 493.885 59.7535 493.885 61.0419L493.812 88.6492C493.841 89.3501 494.039 90.0335 494.39 90.6411C494.741 91.2487 495.234 91.7623 495.827 92.1382C496.944 92.7896 497.843 92.2685 497.857 90.9945ZM506.556 96.0324L506.643 68.4106C506.604 67.712 506.402 67.0321 506.052 66.426C505.702 65.8199 505.214 65.3046 504.627 64.9217C503.511 64.2847 502.598 64.7914 502.598 66.0799L502.54 93.774C502.58 94.4702 502.784 95.1472 503.134 95.7506C503.484 96.354 503.97 96.867 504.555 97.2485C505.671 97.8999 506.585 97.3788 506.585 96.1048M515.283 101.143L515.414 73.5065C515.373 72.8084 515.17 72.1294 514.82 71.5236C514.47 70.9179 513.983 70.4021 513.398 70.0176C512.282 69.3806 511.369 69.8873 511.369 71.1757L511.282 98.7975C511.32 99.4942 511.522 100.172 511.872 100.776C512.223 101.38 512.711 101.892 513.297 102.272C514.413 102.923 515.327 102.402 515.327 101.128M489.115 86L489.188 58.3927C489.152 57.6935 488.95 57.0128 488.6 56.4063C488.25 55.7998 487.761 55.2849 487.172 54.9038C486.056 54.2668 485.143 54.7735 485.143 56.0619L485.07 83.6403C485.106 84.3394 485.308 85.0202 485.658 85.6266C486.008 86.2331 486.497 86.748 487.085 87.1292C488.202 87.7806 489.101 87.2595 489.115 85.971M480.417 80.9331L480.446 53.2389C480.417 52.5381 480.219 51.8547 479.868 51.2471C479.517 50.6395 479.024 50.1258 478.431 49.75C477.314 49.113 476.415 49.6197 476.401 50.9081L476.328 78.5155C476.364 79.2146 476.566 79.8954 476.916 80.5018C477.266 81.1083 477.755 81.6232 478.344 82.0044C479.46 82.6558 480.373 82.1347 480.373 80.8462M484.722 100.911C483.476 100.187 482.446 100.766 482.446 102.2C482.491 102.982 482.718 103.744 483.111 104.423C483.504 105.102 484.051 105.679 484.708 106.108C485.955 106.832 486.97 106.239 486.97 104.805C486.93 104.025 486.706 103.265 486.316 102.588C485.925 101.911 485.379 101.336 484.722 100.911ZM506.469 113.463C505.222 112.739 504.207 113.318 504.192 114.751C504.236 115.532 504.463 116.292 504.856 116.969C505.249 117.645 505.797 118.22 506.454 118.645C507.701 119.369 508.716 118.79 508.73 117.357C508.687 116.576 508.46 115.816 508.067 115.139C507.674 114.462 507.126 113.888 506.469 113.463Z" fill="white"/>
<path d="M536.29 71.668C536.934 72.0726 537.463 72.6359 537.826 73.3038C538.696 74.7515 538.682 76.3729 537.826 76.8507L525.025 84.0891C524.775 84.2002 524.501 84.2439 524.228 84.216C523.956 84.1881 523.696 84.0894 523.474 83.9298C522.825 83.5261 522.291 82.9628 521.923 82.2939L515.645 71.4363C514.79 69.9886 514.79 68.3817 515.645 67.8895C515.895 67.7754 516.17 67.73 516.443 67.758C516.716 67.786 516.976 67.8864 517.197 68.0487C517.842 68.4509 518.375 69.0084 518.748 69.6701L523.474 77.864L534.724 71.4653C534.98 71.3575 535.259 71.3195 535.534 71.3551C535.809 71.3907 536.07 71.4987 536.29 71.668Z" fill="white"/>
<path d="M526.779 58.2913C535.304 63.2134 542.204 75.1424 542.175 84.9142C542.146 94.6861 535.217 98.6527 526.678 93.7306C518.139 88.8085 511.252 76.8941 511.281 67.1077C511.31 57.3214 518.255 53.3692 526.779 58.2913ZM525.025 84.1469L537.826 76.9085C538.682 76.4308 538.696 74.8383 537.826 73.3617C537.463 72.6938 536.934 72.1304 536.289 71.7258C536.066 71.5686 535.805 71.4725 535.533 71.4471C535.261 71.4217 534.987 71.4679 534.738 71.5811L523.488 77.9798L518.762 69.7859C518.397 69.103 517.863 68.5249 517.211 68.1066C516.99 67.9443 516.73 67.8439 516.457 67.8159C516.184 67.7879 515.909 67.8333 515.66 67.9474C514.79 68.4396 514.79 70.0176 515.66 71.4942L521.937 82.3518C522.305 83.0207 522.839 83.584 523.488 83.9877C523.71 84.1473 523.97 84.2459 524.243 84.2739C524.515 84.3018 524.789 84.2581 525.039 84.1469" fill="#F16623"/>
<path opacity="0.3" d="M526.779 58.2913C535.304 63.2134 542.204 75.1424 542.175 84.9142C542.146 94.6861 535.217 98.6527 526.678 93.7306C518.139 88.8085 511.252 76.8941 511.281 67.1077C511.31 57.3214 518.255 53.3692 526.779 58.2913ZM525.025 84.1469L537.826 76.9085C538.682 76.4308 538.696 74.8383 537.826 73.3617C537.463 72.6938 536.934 72.1304 536.289 71.7258C536.066 71.5686 535.805 71.4725 535.533 71.4471C535.261 71.4217 534.987 71.4679 534.738 71.5811L523.488 77.9798L518.762 69.7859C518.397 69.103 517.863 68.5249 517.211 68.1066C516.99 67.9443 516.73 67.8439 516.457 67.8159C516.184 67.7879 515.909 67.8333 515.66 67.9474C514.79 68.4396 514.79 70.0176 515.66 71.4942L521.937 82.3518C522.305 83.0207 522.839 83.584 523.488 83.9877C523.71 84.1473 523.97 84.2459 524.243 84.2739C524.515 84.3018 524.789 84.2581 525.039 84.1469" fill="white"/>
<path d="M248.515 16.3085C247.558 12.7038 240.222 5.91415 233.061 6.05892C232.368 6.08067 231.682 6.21262 231.031 6.44979L90.4057 86.3474C88.3527 87.536 86.6457 89.2388 85.4533 91.2877C84.2609 93.3365 83.6243 95.6606 83.6064 98.0302V401.798C83.6064 409.528 92.5514 416.911 101.003 413.379C101.19 413.328 101.37 413.255 101.54 413.162L242.165 333.134C244.229 331.961 245.945 330.264 247.139 328.215C248.333 326.165 248.963 323.837 248.964 321.466V17.7707C248.933 17.2546 248.779 16.7534 248.515 16.3085Z" fill="black"/>
<path d="M103.149 130.14C103.158 128.963 103.476 127.808 104.071 126.792C104.667 125.776 105.518 124.934 106.541 124.349L237.12 50.1119C237.63 49.8212 238.207 49.6689 238.794 49.6702C239.381 49.6714 239.958 49.8261 240.467 50.1189C240.975 50.4117 241.398 50.8324 241.694 51.3391C241.989 51.8458 242.147 52.4209 242.15 53.0072V297.97C242.138 299.148 241.818 300.303 241.22 301.319C240.622 302.334 239.768 303.176 238.744 303.76L108.165 378.113C107.656 378.405 107.08 378.558 106.493 378.557C105.906 378.556 105.33 378.402 104.822 378.108C104.314 377.815 103.892 377.394 103.598 376.887C103.305 376.379 103.15 375.804 103.149 375.218V130.14Z" fill="#F16623"/>
<path opacity="0.2" d="M103.149 130.14C103.158 128.963 103.476 127.808 104.071 126.792C104.667 125.776 105.518 124.934 106.541 124.349L237.12 50.1119C237.63 49.8212 238.207 49.6689 238.794 49.6702C239.381 49.6714 239.958 49.8261 240.467 50.1189C240.975 50.4117 241.398 50.8324 241.694 51.3391C241.989 51.8458 242.147 52.4209 242.15 53.0072V297.97C242.138 299.148 241.818 300.303 241.22 301.319C240.622 302.334 239.768 303.176 238.744 303.76L108.165 378.113C107.656 378.405 107.08 378.558 106.493 378.557C105.906 378.556 105.33 378.402 104.822 378.108C104.314 377.815 103.892 377.394 103.598 376.887C103.305 376.379 103.15 375.804 103.149 375.218V130.14Z" fill="black"/>
<path opacity="0.1" d="M103.149 130.14C103.158 128.963 103.476 127.808 104.071 126.792C104.667 125.776 105.518 124.934 106.541 124.349L237.12 50.1119C237.63 49.8212 238.207 49.6689 238.794 49.6702C239.381 49.6714 239.958 49.8261 240.467 50.1189C240.975 50.4117 241.398 50.8324 241.694 51.3391C241.989 51.8458 242.147 52.4209 242.15 53.0072V297.97C242.138 299.148 241.818 300.303 241.22 301.319C240.622 302.334 239.768 303.176 238.744 303.76L108.165 378.113C107.656 378.405 107.08 378.558 106.493 378.557C105.906 378.556 105.33 378.402 104.822 378.108C104.314 377.815 103.892 377.394 103.598 376.887C103.305 376.379 103.15 375.804 103.149 375.218V130.14Z" fill="white"/>
<path opacity="0.3" d="M83.5195 98.0303V401.798C83.5195 409.528 92.4645 416.911 100.916 413.379C100.413 413.563 99.8718 413.623 99.3398 413.554C98.8078 413.484 98.3005 413.288 97.8608 412.981C97.4211 412.674 97.062 412.266 96.8141 411.791C96.5662 411.316 96.4368 410.788 96.4368 410.252V106.427C96.445 103.783 97.2315 101.201 98.6984 99.0002L84.9258 92.1382C84.013 93.9694 83.532 95.9848 83.5195 98.0303Z" fill="black"/>
<path opacity="0.1" d="M233.06 6.05892C232.367 6.08067 231.682 6.21262 231.031 6.44979L90.4056 86.3474C88.0615 87.6914 86.1771 89.7093 84.998 92.1382L98.7706 99.0002C99.9258 97.2439 101.481 95.7854 103.308 94.744L243.934 14.8464C244.332 14.6224 244.773 14.482 245.228 14.4338C245.683 14.3857 246.143 14.4307 246.58 14.5662C247.017 14.7018 247.422 14.9249 247.769 15.222C248.117 15.5191 248.4 15.8839 248.602 16.294C247.558 12.7038 240.222 5.91415 233.06 6.05892Z" fill="white"/>
<path d="M189.974 65.0085C190.96 64.4439 191.786 64.8782 191.786 66.0219C191.757 66.6501 191.578 67.2623 191.266 67.8083C190.953 68.3544 190.516 68.8188 189.989 69.1634L162.444 85.0879C161.458 85.667 160.66 85.1747 160.646 84.0456C160.68 83.4298 160.859 82.8307 161.169 82.2973C161.479 81.7639 161.911 81.3113 162.429 80.9765L189.974 65.0085Z" fill="black"/>
<path d="M155.296 85.001C156.282 84.4364 157.079 84.8852 157.094 86.0144C157.062 86.6346 156.884 87.2386 156.574 87.777C156.265 88.3154 155.832 88.773 155.311 89.1124C154.325 89.6915 153.499 89.2282 153.499 88.0845C153.535 87.4658 153.717 86.8643 154.029 86.3287C154.341 85.793 154.775 85.3382 155.296 85.001Z" fill="black"/>
<path d="M172.954 62.6923C174.941 61.5631 176.521 62.4607 176.535 64.7335C176.47 65.9699 176.115 67.1737 175.498 68.2476C174.881 69.3215 174.02 70.2353 172.983 70.9151C171.012 72.0588 169.374 71.1178 169.374 68.8594C169.443 67.6227 169.803 66.4197 170.425 65.3481C171.047 64.2765 171.914 63.3666 172.954 62.6923Z" fill="black"/>
<path d="M172.969 348.668C176.985 346.351 180.218 348.19 180.218 352.808C180.089 355.329 179.366 357.785 178.106 359.973C176.846 362.162 175.086 364.023 172.969 365.403C168.953 367.734 165.619 365.837 165.619 361.219C165.766 358.696 166.509 356.244 167.786 354.063C169.064 351.882 170.84 350.033 172.969 348.668Z" fill="black"/>
<path d="M241.73 46.2756L289.209 85.6381L271.9 95.6127L224.42 56.2502L241.73 46.2756Z" fill="#F16623"/>
<path d="M207.11 66.239L254.59 105.602L237.28 115.591L189.815 76.228L207.11 66.239Z" fill="#F16623"/>
<path d="M189.815 76.228L237.279 115.591L219.97 125.565L172.505 86.217L189.815 76.228Z" fill="white"/>
<path d="M224.42 56.25L271.899 95.6125L254.589 105.602L207.11 66.239L224.42 56.25Z" fill="white"/>
<path d="M137.899 106.195L185.364 145.543L168.054 155.518L120.604 116.17L137.899 106.195Z" fill="#F16623"/>
<path d="M172.505 86.217L219.97 125.565L202.66 135.554L155.209 96.2061L172.505 86.217Z" fill="#F16623"/>
<path d="M102.96 126.361L120.604 116.17L168.054 155.518L150.367 165.724L102.96 126.361Z" fill="white"/>
<path d="M155.209 96.2061L202.659 135.554L185.364 145.543L137.899 106.195L155.209 96.2061Z" fill="white"/>
<path d="M289.209 85.6382L271.899 95.6272C271.895 96.7982 272.2 97.9495 272.784 98.9651C273.368 99.9808 274.209 100.825 275.224 101.412C276.238 101.999 277.39 102.309 278.562 102.31C279.735 102.311 280.887 102.003 281.903 101.418C284.113 100.133 285.947 98.2906 287.219 96.0749C288.491 93.8592 289.158 91.3483 289.151 88.7941L289.209 85.6382Z" fill="#F16623"/>
<path d="M271.899 95.6272L254.589 105.602C254.585 106.773 254.89 107.924 255.474 108.94C256.058 109.955 256.899 110.799 257.914 111.387C258.928 111.974 260.08 112.284 261.252 112.285C262.425 112.286 263.577 111.978 264.593 111.392C266.803 110.108 268.637 108.265 269.909 106.049C271.181 103.834 271.848 101.323 271.841 98.7687L271.899 95.6272Z" fill="#E0E0E0"/>
<path d="M254.589 105.602L237.279 115.591C237.278 116.762 237.586 117.913 238.171 118.928C238.756 119.943 239.599 120.786 240.614 121.373C241.63 121.96 242.782 122.27 243.955 122.271C245.128 122.273 246.28 121.966 247.297 121.381C249.505 120.093 251.336 118.25 252.608 116.035C253.88 113.82 254.548 111.311 254.546 108.758L254.589 105.602Z" fill="#F16623"/>
<path d="M237.28 115.591L220.013 125.623C220.012 126.794 220.32 127.945 220.905 128.961C221.49 129.976 222.333 130.819 223.348 131.406C224.363 131.993 225.515 132.302 226.689 132.304C227.862 132.305 229.014 131.998 230.031 131.414C232.241 130.128 234.073 128.285 235.345 126.07C236.618 123.854 237.285 121.344 237.28 118.79V115.591Z" fill="#E0E0E0"/>
<path d="M220.013 125.623L202.616 135.554C202.615 136.726 202.923 137.877 203.508 138.892C204.093 139.907 204.936 140.75 205.951 141.337C206.966 141.924 208.119 142.233 209.292 142.235C210.465 142.236 211.617 141.929 212.634 141.345C214.844 140.059 216.676 138.216 217.948 136.001C219.221 133.785 219.888 131.275 219.883 128.721L220.013 125.623Z" fill="#F16623"/>
<path d="M202.616 135.554L185.306 145.543C185.301 146.716 185.605 147.87 186.19 148.888C186.774 149.905 187.617 150.751 188.634 151.339C189.651 151.926 190.805 152.235 191.98 152.235C193.154 152.234 194.308 151.923 195.324 151.334C197.533 150.05 199.365 148.21 200.637 145.997C201.909 143.784 202.577 141.276 202.573 138.725L202.616 135.554Z" fill="#E0E0E0"/>
<path d="M185.35 145.543L168.04 155.532C168.038 156.704 168.346 157.855 168.931 158.87C169.517 159.885 170.359 160.728 171.375 161.315C172.39 161.902 173.542 162.212 174.715 162.213C175.888 162.214 177.041 161.907 178.057 161.323C180.267 160.037 182.1 158.194 183.372 155.979C184.644 153.763 185.311 151.253 185.306 148.699L185.35 145.543Z" fill="#F16623"/>
<path opacity="0.2" d="M289.209 85.6382L271.899 95.6272C271.895 96.7982 272.2 97.9495 272.784 98.9651C273.368 99.9808 274.209 100.825 275.224 101.412C276.238 101.999 277.39 102.309 278.562 102.31C279.735 102.311 280.887 102.003 281.903 101.418C284.113 100.133 285.947 98.2906 287.219 96.0749C288.491 93.8592 289.158 91.3483 289.151 88.7941L289.209 85.6382Z" fill="black"/>
<path opacity="0.2" d="M254.589 105.602L237.279 115.591C237.278 116.762 237.586 117.913 238.171 118.928C238.756 119.943 239.599 120.786 240.614 121.373C241.63 121.96 242.782 122.27 243.955 122.271C245.128 122.273 246.28 121.966 247.297 121.381C249.505 120.093 251.336 118.25 252.608 116.035C253.88 113.82 254.548 111.311 254.546 108.758L254.589 105.602Z" fill="black"/>
<path opacity="0.2" d="M220.013 125.623L202.616 135.554C202.615 136.726 202.923 137.877 203.508 138.892C204.093 139.907 204.936 140.75 205.951 141.337C206.966 141.924 208.119 142.233 209.292 142.235C210.465 142.236 211.617 141.929 212.634 141.345C214.844 140.059 216.676 138.216 217.948 136.001C219.221 133.785 219.888 131.275 219.883 128.721L220.013 125.623Z" fill="black"/>
<path opacity="0.2" d="M185.35 145.543L168.04 155.532C168.038 156.704 168.346 157.855 168.931 158.87C169.517 159.885 170.359 160.728 171.375 161.315C172.39 161.902 173.542 162.212 174.715 162.213C175.888 162.214 177.041 161.907 178.057 161.323C180.267 160.037 182.1 158.194 183.372 155.979C184.644 153.763 185.311 151.253 185.306 148.699L185.35 145.543Z" fill="black"/>
<path d="M168.039 155.532L150.353 165.666C150.351 166.837 150.659 167.988 151.244 169.004C151.83 170.019 152.672 170.862 153.688 171.449C154.703 172.036 155.855 172.345 157.028 172.347C158.201 172.348 159.354 172.041 160.37 171.457C162.702 170.109 164.637 168.174 165.983 165.844C167.329 163.514 168.038 160.871 168.039 158.181V155.532Z" fill="#E0E0E0"/>
<path d="M188.22 206.491C183.084 207.103 178.103 208.643 173.519 211.036C162.815 216.521 154.641 225.917 150.7 237.268C148.984 242.139 148.159 247.278 148.265 252.44C149.412 247.563 151.064 242.818 153.194 238.282C157.963 228.104 165.498 219.466 174.94 213.353C179.115 210.61 183.566 208.31 188.22 206.491Z" fill="#F16623"/>
<path d="M174.68 282.277C171.861 282.229 169.068 281.741 166.402 280.829C163.438 279.846 160.702 278.279 158.354 276.223C156.006 274.167 154.094 271.662 152.73 268.857C151.486 266.335 150.644 263.633 150.237 260.851C149.929 263.764 150.306 266.709 151.339 269.45C152.508 272.645 154.463 275.494 157.025 277.735C159.586 279.977 162.671 281.538 165.996 282.277C168.851 282.952 171.824 282.952 174.68 282.277Z" fill="#F16623"/>
<path d="M197.15 235.647C197.425 239.505 197.367 243.38 196.976 247.228C196.068 255.9 193.23 264.259 188.669 271.694C186.635 275.01 184.312 278.14 181.725 281.046C185.055 278.822 187.995 276.063 190.424 272.881C196.044 265.544 199.099 256.568 199.122 247.33C199.108 243.354 198.442 239.408 197.15 235.647Z" fill="#F16623"/>
<path d="M151.686 219.722C148.191 223.096 145.328 227.067 143.234 231.449C138.337 241.633 137.523 253.301 140.958 264.065C142.417 268.696 144.701 273.027 147.7 276.848C145.788 272.537 144.331 268.04 143.35 263.428C141.186 253.091 141.934 242.357 145.51 232.419C147.129 227.987 149.199 223.733 151.686 219.722Z" fill="#F16623"/>
<path d="M207.081 221.445C206.702 217.489 205.281 213.703 202.964 210.472C200.32 206.672 196.625 203.724 192.331 201.986C188.037 200.248 183.329 199.796 178.782 200.685C174.867 201.386 171.209 203.115 168.185 205.694C171.587 204.021 175.277 203.009 179.058 202.712C183.227 202.321 187.43 202.937 191.311 204.509C195.192 206.082 198.637 208.564 201.355 211.746C203.86 214.589 205.803 217.88 207.081 221.445Z" fill="#F16623"/>
<path d="M269.304 176.118C273.898 175.651 278.5 176.934 282.188 179.71C285.876 182.485 288.378 186.548 289.195 191.087L295.922 228.727L338.109 258.187L328.686 269.624L288.484 248.676C286.124 247.435 284.037 245.735 282.344 243.676C280.651 241.618 279.387 239.242 278.626 236.689L265.694 193.128L269.304 176.118Z" fill="#FFA8A7"/>
<path d="M284.903 216.509C288.639 214.532 291.63 211.397 293.428 207.576L289.601 190.32C288.638 185.935 286.094 182.057 282.452 179.425C278.811 176.793 274.327 175.59 269.855 176.046H269.203L265.651 192.998L271.261 218.014C275.842 219.168 280.686 218.633 284.903 216.509Z" fill="#F16623"/>
<path d="M284.903 216.509C280.707 218.647 275.88 219.207 271.305 218.087L272.754 224.239C278.003 225.412 291.413 225.021 294.907 213.961L293.457 207.576C291.652 211.402 288.649 214.537 284.903 216.509Z" fill="black"/>
<path opacity="0.2" d="M285.027 216.509C288.762 214.532 291.753 211.398 293.551 207.577L289.724 190.32C288.761 185.936 286.217 182.058 282.575 179.425C278.934 176.793 274.45 175.59 269.978 176.046H269.326L265.774 192.999L271.384 218.015C275.965 219.168 280.809 218.634 285.027 216.509Z" fill="#7C3310"/>
<path opacity="0.5" d="M284.903 216.509C280.707 218.647 275.88 219.207 271.305 218.087L272.754 224.239C278.003 225.412 291.413 225.021 294.907 213.961L293.457 207.576C291.652 211.402 288.649 214.537 284.903 216.509Z" fill="#040404"/>
<path d="M278.597 192.217C278.597 192.217 276.915 179.419 269.246 176.075C269.246 176.075 250.936 181.547 235.728 187.309C229.726 189.486 223.846 191.984 218.114 194.793C214.663 197.79 204.761 206.664 200.108 209.053C197.831 210.179 195.38 210.913 192.859 211.225C189.676 211.736 186.62 212.852 183.856 214.511C169.91 222.56 158.645 242.017 158.689 258.043C158.689 268.538 163.618 274.879 170.91 275.777H171.214C172.361 275.907 173.518 275.907 174.665 275.777C187.35 275.661 207.704 275.56 215.693 273.272C253.009 262.415 282.352 235.473 278.597 192.217Z" fill="#F16623"/>
<path d="M243.02 187.005L248.5 177.103L270.478 191.913L261.78 203.581C259.953 204.471 257.961 204.973 255.93 205.055C253.898 205.137 251.872 204.798 249.979 204.059C248.11 203.194 246.44 201.954 245.071 200.418C243.701 198.881 242.663 197.08 242.02 195.126C241.636 193.774 241.527 192.36 241.699 190.965C241.87 189.57 242.32 188.224 243.02 187.005Z" fill="#FFA8A7"/>
<path opacity="0.2" d="M250.559 178.492C250.559 190.407 260.055 196.009 265.854 198.123L270.479 191.912L250.559 178.492Z" fill="black"/>
<path d="M240.628 166.592C239.802 161.83 238.99 156.936 239.918 152.116C240.846 147.295 243.919 142.72 248.616 141.345C249.57 139.315 250.935 137.504 252.624 136.027C254.313 134.549 256.29 133.437 258.431 132.76C262.628 131.615 266.97 131.089 271.319 131.197C276.118 130.903 280.935 131.17 285.672 131.993C290.446 132.842 294.785 135.3 297.966 138.956C299.597 141.198 300.754 143.748 301.367 146.451C301.981 149.154 302.037 151.953 301.532 154.678C300.487 160.123 298.468 165.336 295.573 170.067C286.353 170.718 276.959 171.775 267.724 172.427C263.026 172.907 258.294 172.945 253.589 172.542C248.802 171.791 244.316 169.732 240.628 166.592Z" fill="black"/>
<path d="M297.081 144.515C299.424 158.66 297.86 173.175 292.558 186.498C291.311 189.582 289.659 192.767 286.832 194.417C284.005 196.067 280.061 195.778 276.611 195.271C271.029 194.649 265.585 193.129 260.49 190.769C255.35 188.355 251.345 184.049 249.312 178.753C247.488 179.126 245.594 178.964 243.86 178.286C242.126 177.608 240.626 176.443 239.541 174.931C237.398 171.791 236.288 168.061 236.366 164.262C236.366 161.859 236.816 159.007 238.99 157.935C241.165 156.864 243.426 158.066 245.181 159.47C248.051 161.808 250.148 164.956 251.197 168.503C252.792 162.626 255.285 156.922 256.88 151.131C257.503 148.829 258.33 146.31 260.301 145.008C262.78 143.43 265.999 144.342 268.84 145.008C278.142 147.25 287.864 147.08 297.081 144.515Z" fill="#FFA8A7"/>
<path d="M279.916 162.351L286.803 173.932L278.597 175.467L279.916 162.351Z" fill="#F28F8F"/>
<path d="M270.754 179.462L276.988 182.488C276.453 183.194 275.703 183.707 274.85 183.95C273.998 184.192 273.089 184.152 272.262 183.834C271.545 183.39 271.004 182.712 270.73 181.916C270.455 181.12 270.464 180.253 270.754 179.462Z" fill="#F28F8F"/>
<path opacity="0.3" d="M270.754 179.462L276.988 182.488C276.453 183.194 275.703 183.707 274.85 183.95C273.998 184.192 273.089 184.152 272.262 183.834C271.545 183.39 271.004 182.712 270.73 181.916C270.455 181.12 270.464 180.253 270.754 179.462Z" fill="black"/>
<path d="M274.349 184.037C273.625 184.185 272.873 184.114 272.189 183.834C271.617 183.513 271.153 183.029 270.856 182.444C270.56 181.859 270.443 181.199 270.522 180.548C271.413 180.542 272.279 180.844 272.972 181.402C273.761 182.065 274.256 183.012 274.349 184.037Z" fill="#F28F8F"/>
<path d="M268.028 162.814C267.982 163.275 268.074 163.74 268.292 164.149C268.51 164.558 268.844 164.893 269.253 165.113C269.661 165.332 270.126 165.426 270.588 165.382C271.05 165.338 271.489 165.158 271.849 164.866C272.208 164.573 272.473 164.181 272.61 163.738C272.746 163.295 272.748 162.821 272.616 162.377C272.483 161.933 272.222 161.538 271.865 161.242C271.507 160.947 271.07 160.763 270.609 160.715C269.988 160.654 269.369 160.841 268.886 161.234C268.402 161.627 268.094 162.195 268.028 162.814Z" fill="black"/>
<path d="M287.803 164.045C287.76 164.506 287.854 164.969 288.074 165.376C288.294 165.784 288.63 166.117 289.039 166.334C289.448 166.552 289.913 166.643 290.374 166.598C290.835 166.552 291.273 166.371 291.631 166.077C291.989 165.784 292.253 165.391 292.388 164.948C292.523 164.505 292.524 164.032 292.391 163.589C292.258 163.146 291.996 162.752 291.639 162.457C291.281 162.162 290.845 161.979 290.384 161.931C289.761 161.87 289.14 162.059 288.656 162.455C288.172 162.851 287.866 163.423 287.803 164.045Z" fill="black"/>
<path d="M291.05 154.953L295.892 159.065C296.183 158.444 296.276 157.749 296.159 157.073C296.043 156.398 295.722 155.774 295.24 155.286C294.642 154.847 293.933 154.582 293.193 154.524C292.452 154.465 291.71 154.614 291.05 154.953Z" fill="black"/>
<path d="M271.74 154.577L266.173 157.646C266.022 156.973 266.079 156.271 266.338 155.632C266.597 154.993 267.045 154.448 267.623 154.07C268.289 153.768 269.026 153.655 269.753 153.744C270.479 153.834 271.167 154.122 271.74 154.577Z" fill="black"/>
<path d="M301.488 149.278C281.319 152.488 260.768 152.488 240.599 149.278C241.541 124.668 252.632 116.59 271.769 116.59C290.905 116.59 301.633 126.781 301.488 149.278Z" fill="black"/>
<path d="M301.489 149.278C301.489 139.839 299.662 132.615 296.067 127.36L288.064 125.116C284.291 124.06 280.33 123.853 276.466 124.508L268.841 125.782C266.228 126.207 263.825 127.469 261.994 129.379C260.163 131.288 259.004 133.74 258.692 136.365L256.953 151.204C271.823 152.283 286.768 151.637 301.489 149.278Z" fill="black"/>
<path opacity="0.29" d="M301.489 149.278C301.489 139.839 299.662 132.615 296.067 127.36L288.064 125.116C284.291 124.06 280.33 123.853 276.466 124.508L268.841 125.782C266.228 126.207 263.825 127.469 261.994 129.379C260.163 131.288 259.004 133.74 258.692 136.365L256.953 151.204C271.823 152.283 286.768 151.637 301.489 149.278Z" fill="white"/>
<path d="M303.881 128.519H300.343C299.198 128.519 298.067 128.519 296.936 128.663C286.564 129.413 276.733 133.578 268.985 140.505L257.068 151.175C271.9 152.246 286.806 151.599 301.489 149.249L309.245 139.912C310.085 138.894 310.619 137.659 310.783 136.35C310.948 135.041 310.737 133.713 310.175 132.519C309.613 131.326 308.723 130.316 307.609 129.607C306.494 128.899 305.202 128.522 303.881 128.519Z" fill="black"/>
<path opacity="0.2" d="M303.881 128.519H300.343C299.198 128.519 298.067 128.519 296.936 128.663C286.564 129.413 276.733 133.578 268.985 140.505L257.068 151.175C271.9 152.246 286.806 151.599 301.489 149.249L309.245 139.912C310.085 138.894 310.619 137.659 310.783 136.35C310.948 135.041 310.737 133.713 310.175 132.519C309.613 131.326 308.723 130.316 307.609 129.607C306.494 128.899 305.202 128.522 303.881 128.519Z" fill="black"/>
<path d="M365.162 260.113L311.115 291.484L256.721 260.113L310.753 228.756L365.162 260.113Z" fill="#F16623"/>
<g opacity="0.3">
<path d="M365.162 260.113L311.115 291.484L256.721 260.113L310.753 228.756L365.162 260.113Z" fill="white"/>
</g>
<path d="M365.162 260.113L365.002 315.009L310.956 346.38L311.115 291.484L365.162 260.113Z" fill="#F16623"/>
<g opacity="0.1">
<path d="M365.162 260.113L365.002 315.009L310.956 346.38L311.115 291.484L365.162 260.113Z" fill="white"/>
</g>
<path d="M311.115 291.484L310.955 346.38L256.561 315.009L256.721 260.113L311.115 291.484Z" fill="#F16623"/>
<path d="M320.524 256.103L338.819 244.927L329.483 239.541L311.115 250.486L320.524 256.103Z" fill="#E0E0E0"/>
<path d="M320.524 256.103L311.115 250.486L292.457 239.382L283.149 244.767L301.692 256.103L311.115 261.85L335.993 277.036L345.981 271.246L320.524 256.103Z" fill="white"/>
<path d="M301.691 256.103L276.147 271.318L286.15 277.08L311.115 261.85L301.691 256.103Z" fill="#E0E0E0"/>
<path d="M345.981 271.246L335.993 277.036L336.08 277.08L336.239 331.715L346.315 325.852L346.17 271.361L345.981 271.246Z" fill="#E0E0E0"/>
<path d="M286.15 277.08L276.147 271.318L276.06 271.361L275.9 326.171L285.991 331.99L286.15 277.08Z" fill="white"/>
<path opacity="0.2" d="M286.15 277.08L276.147 271.318L276.06 271.361L275.9 326.171L285.991 331.99L286.15 277.08Z" fill="black"/>
<path d="M311.086 272.693L299.778 279.599L311.086 286.113L322.379 279.57L311.086 272.693Z" fill="white"/>
<path d="M204.066 270.797C204.066 270.797 208.284 209.473 209.154 205.651C212.547 191.073 233.713 192.101 235.728 206.939C236.54 212.991 226.87 271.752 226.87 271.752L261.91 308.755L269 315.255L275.321 313.967L289.731 315.328C290.113 315.368 290.472 315.531 290.755 315.792C291.037 316.053 291.227 316.398 291.297 316.775C291.388 317.224 291.302 317.69 291.056 318.076C290.81 318.463 290.423 318.738 289.977 318.845L280.467 321.176L287.339 325.867C288.3 326.52 289.386 326.968 290.528 327.184L301.314 329.225C301.79 329.313 302.217 329.572 302.514 329.954C302.811 330.336 302.957 330.813 302.924 331.295C302.902 331.679 302.768 332.048 302.539 332.357C302.31 332.666 301.995 332.9 301.633 333.033L295.834 335.19C292.076 336.594 288.059 337.174 284.056 336.889C280.054 336.604 276.159 335.462 272.639 333.539L260.084 326.692C258.265 325.701 256.547 324.537 254.952 323.217L210.343 286.316C208.081 284.459 206.321 282.066 205.224 279.355C204.128 276.644 203.729 273.701 204.066 270.797Z" fill="#FFA8A7"/>
<path d="M235.192 247.301L239.657 214.004C239.934 211.736 239.761 209.436 239.148 207.235C238.534 205.033 237.493 202.974 236.083 201.175C234.673 199.376 232.921 197.871 230.929 196.748C228.937 195.624 226.742 194.904 224.471 194.627C222.2 194.35 219.896 194.523 217.692 195.136C215.487 195.748 213.425 196.788 211.623 198.196C209.821 199.604 208.315 201.353 207.19 203.343C206.065 205.332 205.343 207.523 205.066 209.791L201.326 243.769C206.41 246.69 212.052 248.511 217.886 249.114C223.72 249.718 229.616 249.09 235.192 247.272V247.301Z" fill="#F16623"/>
<path opacity="0.2" d="M235.315 247.3L239.78 214.004C240.057 211.736 239.884 209.435 239.271 207.234C238.657 205.033 237.616 202.974 236.206 201.174C234.796 199.375 233.044 197.871 231.052 196.747C229.06 195.624 226.865 194.903 224.594 194.627C222.323 194.35 220.019 194.523 217.815 195.135C215.61 195.747 213.548 196.787 211.746 198.196C209.944 199.604 208.438 201.353 207.313 203.342C206.188 205.332 205.466 207.523 205.189 209.791L201.449 243.768C206.533 246.689 212.175 248.51 218.009 249.114C223.843 249.717 229.739 249.09 235.315 247.272V247.3Z" fill="#7C3310"/>
<path d="M217.2 249.067C211.61 248.386 206.212 246.594 201.326 243.797L200.47 251.629C215.519 263.211 234.003 256.059 234.003 256.059L235.192 247.373C229.385 249.219 223.25 249.797 217.2 249.067Z" fill="black"/>
<path opacity="0.5" d="M217.2 249.067C211.61 248.386 206.212 246.594 201.326 243.797L200.47 251.629C215.519 263.211 234.003 256.059 234.003 256.059L235.192 247.373C229.385 249.219 223.25 249.797 217.2 249.067Z" fill="#040404"/>
<path d="M608.965 361.045L632.48 361.726L655.98 361.045C656.995 376.898 653.892 393.054 649.63 400.944C648.623 402.976 646.993 404.634 644.977 405.678C638.047 409.673 626.84 409.673 619.939 405.678C617.893 404.62 616.257 402.914 615.286 400.828C611.024 392.894 607.95 376.825 608.965 361.045Z" fill="white"/>
<path d="M615.909 351.462C606.689 356.775 606.645 365.374 615.793 370.687C624.941 376 639.83 376 649.05 370.687C658.271 365.374 658.3 356.775 649.152 351.462C640.004 346.149 625.115 346.12 615.909 351.462Z" fill="#EBEBEB"/>
<path d="M619.548 353.546C612.299 357.687 612.299 364.404 619.461 368.544C626.623 372.685 638.221 372.685 645.397 368.544C652.573 364.404 652.646 357.687 645.484 353.546C638.322 349.406 626.739 349.406 619.548 353.546Z" fill="#E0E0E0"/>
<g opacity="0.15">
<path d="M619.548 353.546C612.299 357.687 612.299 364.404 619.461 368.544C626.623 372.685 638.221 372.685 645.397 368.544C652.573 364.404 652.646 357.687 645.484 353.546C638.322 349.406 626.739 349.406 619.548 353.546Z" fill="black"/>
</g>
<path d="M644.469 312.997C648.297 308.248 652.733 304.007 656.241 299.012C658.633 295.61 660.59 291.455 659.619 287.431C659.059 285.577 657.991 283.917 656.536 282.638C655.081 281.359 653.296 280.512 651.384 280.192C647.525 279.636 643.595 280.512 640.337 282.653C637.121 284.808 634.297 287.496 631.987 290.601C618.761 307.341 612.504 328.526 614.517 349.753C614.569 352.186 615.33 354.55 616.707 356.558C617.55 357.546 618.658 358.273 619.902 358.653C621.145 359.032 622.471 359.049 623.723 358.7C630.131 356.804 629.29 348.161 630.334 343.08C631.779 336.102 634.256 329.379 637.684 323.131C639.645 319.561 641.916 316.17 644.469 312.997Z" fill="#F16623"/>
<path opacity="0.2" d="M644.469 312.997C648.297 308.248 652.733 304.007 656.241 299.012C658.633 295.61 660.59 291.455 659.619 287.431C659.059 285.577 657.991 283.917 656.536 282.638C655.081 281.359 653.296 280.512 651.384 280.192C647.525 279.636 643.595 280.512 640.337 282.653C637.121 284.808 634.297 287.496 631.987 290.601C618.761 307.341 612.504 328.526 614.517 349.753C614.569 352.186 615.33 354.55 616.707 356.558C617.55 357.546 618.658 358.273 619.902 358.653C621.145 359.032 622.471 359.049 623.723 358.7C630.131 356.804 629.29 348.161 630.334 343.08C631.779 336.102 634.256 329.379 637.684 323.131C639.645 319.561 641.916 316.17 644.469 312.997Z" fill="white"/>
<path d="M623.332 352.243C623.455 352.221 623.567 352.156 623.648 352.062C623.73 351.967 623.777 351.847 623.782 351.722C624.231 341.458 627.58 306.41 651.762 286.577C651.858 286.477 651.914 286.346 651.92 286.208C651.926 286.07 651.881 285.934 651.793 285.827C651.706 285.72 651.582 285.648 651.445 285.627C651.308 285.605 651.168 285.634 651.051 285.708C626.507 305.889 623.115 341.328 622.665 351.722C622.661 351.87 622.715 352.013 622.815 352.121C622.916 352.229 623.054 352.294 623.202 352.301L623.332 352.243Z" fill="#F0F0F0"/>
<path d="M619.794 353.358C620.308 355.604 621.268 357.723 622.618 359.591C623.967 361.459 625.679 363.036 627.652 364.23C631.354 365.977 635.47 366.664 639.54 366.214C643.662 365.733 647.711 364.761 651.602 363.318C653.53 362.667 655.69 361.784 655.951 359.395C655.991 358.765 655.889 358.133 655.653 357.547C655.418 356.961 655.054 356.435 654.588 356.007C654.197 355.645 653.776 355.284 653.327 354.936C653.127 354.783 652.977 354.572 652.9 354.332C652.822 354.092 652.819 353.834 652.891 353.592C652.964 353.35 653.108 353.136 653.305 352.978C653.502 352.82 653.742 352.725 653.994 352.707C655.147 352.64 656.295 352.5 657.43 352.287C660.091 351.856 662.591 350.733 664.678 349.03C666.188 347.69 667.334 345.992 668.013 344.093C668.388 343.321 668.541 342.461 668.457 341.608C668.373 340.754 668.053 339.941 667.534 339.258C666.774 338.625 665.849 338.223 664.867 338.1C663.997 337.911 663.142 337.752 662.272 337.622C662.027 337.578 661.803 337.457 661.633 337.276C661.462 337.095 661.354 336.865 661.325 336.618C661.296 336.372 661.347 336.122 661.47 335.907C661.594 335.691 661.783 335.521 662.011 335.421L665.65 333.974C666.698 333.631 667.648 333.04 668.419 332.251C668.894 331.517 669.204 330.689 669.326 329.825C669.449 328.96 669.382 328.078 669.129 327.242C668.68 324.955 667.897 322.754 667.361 320.496C666.715 318.253 666.63 315.887 667.114 313.605C660.278 312.838 653.36 313.299 646.687 314.966C644.675 315.373 642.773 316.202 641.106 317.398C638.83 319.222 638.206 321.943 638.482 324.897C638.483 325.015 638.445 325.13 638.374 325.225C638.303 325.32 638.202 325.388 638.088 325.419C637.973 325.451 637.852 325.443 637.742 325.399C637.633 325.354 637.541 325.274 637.481 325.172L635.162 320.829C634.82 320.21 634.254 319.745 633.58 319.529C632.906 319.314 632.175 319.365 631.537 319.671C629.49 320.685 627.674 322.109 626.202 323.854C625.386 324.782 624.765 325.863 624.374 327.034C623.983 328.205 623.831 329.442 623.926 330.673C624.209 334.049 624.776 337.396 625.622 340.676C625.668 340.861 625.656 341.056 625.587 341.233C625.519 341.411 625.397 341.563 625.238 341.669C625.08 341.775 624.893 341.83 624.702 341.826C624.511 341.822 624.326 341.759 624.173 341.646L624.057 341.574C623.436 341.089 622.652 340.861 621.868 340.937C619.809 341.183 619.272 343.268 619.142 345.048C619.022 347.834 619.242 350.625 619.794 353.358Z" fill="#F16623"/>
<path opacity="0.2" d="M619.794 353.358C620.308 355.604 621.268 357.723 622.618 359.591C623.967 361.459 625.679 363.036 627.652 364.23C631.354 365.977 635.47 366.664 639.54 366.214C643.662 365.733 647.711 364.761 651.602 363.318C653.53 362.667 655.69 361.784 655.951 359.395C655.991 358.765 655.889 358.133 655.653 357.547C655.418 356.961 655.054 356.435 654.588 356.007C654.197 355.645 653.776 355.284 653.327 354.936C653.127 354.783 652.977 354.572 652.9 354.332C652.822 354.092 652.819 353.834 652.891 353.592C652.964 353.35 653.108 353.136 653.305 352.978C653.502 352.82 653.742 352.725 653.994 352.707C655.147 352.64 656.295 352.5 657.43 352.287C660.091 351.856 662.591 350.733 664.678 349.03C666.188 347.69 667.334 345.992 668.013 344.093C668.388 343.321 668.541 342.461 668.457 341.608C668.373 340.754 668.053 339.941 667.534 339.258C666.774 338.625 665.849 338.223 664.867 338.1C663.997 337.911 663.142 337.752 662.272 337.622C662.027 337.578 661.803 337.457 661.633 337.276C661.462 337.095 661.354 336.865 661.325 336.618C661.296 336.372 661.347 336.122 661.47 335.907C661.594 335.691 661.783 335.521 662.011 335.421L665.65 333.974C666.698 333.631 667.648 333.04 668.419 332.251C668.894 331.517 669.204 330.689 669.326 329.825C669.449 328.96 669.382 328.078 669.129 327.242C668.68 324.955 667.897 322.754 667.361 320.496C666.715 318.253 666.63 315.887 667.114 313.605C660.278 312.838 653.36 313.299 646.687 314.966C644.675 315.373 642.773 316.202 641.106 317.398C638.83 319.222 638.206 321.943 638.482 324.897C638.483 325.015 638.445 325.13 638.374 325.225C638.303 325.32 638.202 325.388 638.088 325.419C637.973 325.451 637.852 325.443 637.742 325.399C637.633 325.354 637.541 325.274 637.481 325.172L635.162 320.829C634.82 320.21 634.254 319.745 633.58 319.529C632.906 319.314 632.175 319.365 631.537 319.671C629.49 320.685 627.674 322.109 626.202 323.854C625.386 324.782 624.765 325.863 624.374 327.034C623.983 328.205 623.831 329.442 623.926 330.673C624.209 334.049 624.776 337.396 625.622 340.676C625.668 340.861 625.656 341.056 625.587 341.233C625.519 341.411 625.397 341.563 625.238 341.669C625.08 341.775 624.893 341.83 624.702 341.826C624.511 341.822 624.326 341.759 624.173 341.646L624.057 341.574C623.436 341.089 622.652 340.861 621.868 340.937C619.809 341.183 619.272 343.268 619.142 345.048C619.022 347.834 619.242 350.625 619.794 353.358Z" fill="black"/>
<path opacity="0.2" d="M619.794 353.358C620.308 355.604 621.268 357.723 622.618 359.591C623.967 361.459 625.679 363.036 627.652 364.23C631.354 365.977 635.47 366.664 639.54 366.214C643.662 365.733 647.711 364.761 651.602 363.318C653.53 362.667 655.69 361.784 655.951 359.395C655.991 358.765 655.889 358.133 655.653 357.547C655.418 356.961 655.054 356.435 654.588 356.007C654.197 355.645 653.776 355.284 653.327 354.936C653.127 354.783 652.977 354.572 652.9 354.332C652.822 354.092 652.819 353.834 652.891 353.592C652.964 353.35 653.108 353.136 653.305 352.978C653.502 352.82 653.742 352.725 653.994 352.707C655.147 352.64 656.295 352.5 657.43 352.287C660.091 351.856 662.591 350.733 664.678 349.03C666.188 347.69 667.334 345.992 668.013 344.093C668.388 343.321 668.541 342.461 668.457 341.608C668.373 340.754 668.053 339.941 667.534 339.258C666.774 338.625 665.849 338.223 664.867 338.1C663.997 337.911 663.142 337.752 662.272 337.622C662.027 337.578 661.803 337.457 661.633 337.276C661.462 337.095 661.354 336.865 661.325 336.618C661.296 336.372 661.347 336.122 661.47 335.907C661.594 335.691 661.783 335.521 662.011 335.421L665.65 333.974C666.698 333.631 667.648 333.04 668.419 332.251C668.894 331.517 669.204 330.689 669.326 329.825C669.449 328.96 669.382 328.078 669.129 327.242C668.68 324.955 667.897 322.754 667.361 320.496C666.715 318.253 666.63 315.887 667.114 313.605C660.278 312.838 653.36 313.299 646.687 314.966C644.675 315.373 642.773 316.202 641.106 317.398C638.83 319.222 638.206 321.943 638.482 324.897C638.483 325.015 638.445 325.13 638.374 325.225C638.303 325.32 638.202 325.388 638.088 325.419C637.973 325.451 637.852 325.443 637.742 325.399C637.633 325.354 637.541 325.274 637.481 325.172L635.162 320.829C634.82 320.21 634.254 319.745 633.58 319.529C632.906 319.314 632.175 319.365 631.537 319.671C629.49 320.685 627.674 322.109 626.202 323.854C625.386 324.782 624.765 325.863 624.374 327.034C623.983 328.205 623.831 329.442 623.926 330.673C624.209 334.049 624.776 337.396 625.622 340.676C625.668 340.861 625.656 341.056 625.587 341.233C625.519 341.411 625.397 341.563 625.238 341.669C625.08 341.775 624.893 341.83 624.702 341.826C624.511 341.822 624.326 341.759 624.173 341.646L624.057 341.574C623.436 341.089 622.652 340.861 621.868 340.937C619.809 341.183 619.272 343.268 619.142 345.048C619.022 347.834 619.242 350.625 619.794 353.358Z" fill="white"/>
<path d="M630.639 363.665C631.923 358.184 633.764 352.849 636.133 347.741C636.131 347.661 636.146 347.582 636.179 347.509C636.211 347.436 636.26 347.372 636.322 347.321L636.699 346.496C636.036 340.145 634.192 333.974 631.262 328.299C631.188 328.17 631.168 328.017 631.206 327.873C631.244 327.73 631.337 327.607 631.465 327.531C631.595 327.461 631.747 327.443 631.89 327.481C632.032 327.518 632.155 327.609 632.234 327.734C634.978 333.027 636.792 338.751 637.598 344.657C642.251 335.349 649.674 324.39 661.127 316.5C661.248 316.415 661.399 316.381 661.545 316.405C661.692 316.429 661.823 316.51 661.91 316.63C661.994 316.753 662.026 316.905 661.999 317.051C661.971 317.197 661.887 317.327 661.765 317.412C649.949 325.62 642.498 336.999 637.96 346.453C644.059 343.695 650.832 342.779 657.445 343.818C657.516 343.832 657.584 343.859 657.645 343.9C657.706 343.94 657.758 343.992 657.798 344.053C657.839 344.113 657.867 344.181 657.881 344.253C657.895 344.324 657.894 344.398 657.88 344.469C657.861 344.579 657.81 344.681 657.732 344.761C657.654 344.841 657.554 344.896 657.445 344.918H657.227C657.126 344.918 646.427 342.964 637.192 348.117C634.844 353.174 633.018 358.457 631.741 363.883C631.722 363.993 631.671 364.094 631.593 364.175C631.516 364.255 631.415 364.309 631.306 364.331H631.088C631.014 364.319 630.943 364.292 630.879 364.252C630.816 364.211 630.761 364.158 630.719 364.096C630.677 364.033 630.648 363.963 630.634 363.889C630.621 363.815 630.622 363.739 630.639 363.665Z" fill="#F0F0F0"/>
<path d="M94.8709 409.021L68.1087 409.789L41.3609 409.021C40.2011 427.06 43.724 445.445 48.6096 454.421C49.7633 456.731 51.6211 458.617 53.9157 459.806C61.8023 464.352 74.56 464.352 82.4031 459.806C84.7351 458.59 86.5963 456.634 87.6947 454.247C92.5224 445.257 96.0162 426.973 94.8709 409.021Z" fill="white"/>
<path d="M86.9701 398.077C97.4517 404.114 97.5097 413.915 87.086 419.952C76.6624 425.988 59.7294 426.003 49.2477 419.952C38.7661 413.9 38.7951 404.114 49.1317 398.077C59.4684 392.04 76.4884 391.997 86.9701 398.077Z" fill="#EBEBEB"/>
<path d="M82.8239 400.48C91.0004 405.2 91.0439 412.843 82.9109 417.548C74.7778 422.253 61.5706 422.268 53.3941 417.548C45.2175 412.829 45.174 405.2 53.3071 400.48C61.4402 395.761 74.6473 395.761 82.8239 400.48Z" fill="#E0E0E0"/>
<g opacity="0.15">
<path d="M82.8239 400.48C91.0004 405.2 91.0439 412.843 82.9109 417.548C74.7778 422.253 61.5706 422.268 53.3941 417.548C45.2175 412.829 45.174 405.2 53.3071 400.48C61.4402 395.761 74.6473 395.761 82.8239 400.48Z" fill="black"/>
</g>
<path d="M112.094 295.002C51.843 314.72 51.2631 355.009 64.8907 383.687C68.3266 389.478 78.6922 392.605 87.7242 356.934L71.8929 358.961L90.3482 349.623L95.1323 335.32L79.7506 336.464L99.2351 328.299C102.832 316.947 107.126 305.827 112.094 295.002Z" fill="#F16623"/>
<path opacity="0.2" d="M112.094 295.002C51.843 314.72 51.2631 355.009 64.8907 383.687C68.3266 389.478 78.6922 392.605 87.7242 356.934L71.8929 358.961L90.3482 349.623L95.1323 335.32L79.7506 336.464L99.2351 328.299C102.832 316.947 107.126 305.827 112.094 295.002Z" fill="black"/>
<path opacity="0.2" d="M112.094 295.002C51.843 314.72 51.2631 355.009 64.8907 383.687C68.3266 389.478 78.6922 392.605 87.7242 356.934L71.8929 358.961L90.3482 349.623L95.1323 335.32L79.7506 336.464L99.2351 328.299C102.832 316.947 107.126 305.827 112.094 295.002Z" fill="white"/>
<path d="M95.0453 305.136C63.2524 329.225 60.3819 356.847 69.3558 385.699C66.1809 360.249 62.745 334.582 95.0453 305.136Z" fill="white"/>
<path d="M9.97412 335.928C69.4136 344.281 76.6624 381.704 68.7323 410.672C66.4997 416.651 57.3663 421.269 43.0138 389.55L58.1056 388.812L39.3604 383.166L32.5176 370.643L47.0151 369.196L27.458 364.853C22.2351 354.859 16.3959 345.199 9.97412 335.928Z" fill="#F16623"/>
<path opacity="0.2" d="M9.97412 335.928C69.4136 344.281 76.6624 381.704 68.7323 410.672C66.4997 416.651 57.3663 421.269 43.0138 389.55L58.1056 388.812L39.3604 383.166L32.5176 370.643L47.0151 369.196L27.458 364.853C22.2351 354.859 16.3959 345.199 9.97412 335.928Z" fill="white"/>
<path opacity="0.1" d="M9.97412 335.928C69.4136 344.281 76.6624 381.704 68.7323 410.672C66.4997 416.651 57.3663 421.269 43.0138 389.55L58.1056 388.812L39.3604 383.166L32.5176 370.643L47.0151 369.196L27.458 364.853C22.2351 354.859 16.3959 345.199 9.97412 335.928Z" fill="black"/>
<path d="M27.5308 342.486C61.1503 359.641 68.4281 384.903 64.8907 413.249C63.6004 389.101 62.5131 364.592 27.5308 342.486Z" fill="white"/>
<path d="M129.491 350.014C74.9951 350.897 64.2525 383.818 68.1523 410.817C69.5005 416.448 77.2132 421.631 93.6968 394.646L80.1852 392.287L97.7126 389.304L105.28 378.78L92.4355 375.754L110.557 373.973C116.372 365.608 122.695 357.606 129.491 350.014Z" fill="#F16623"/>
<path d="M112.935 353.894C80.7074 365.606 71.3275 387.552 71.3565 413.509C75.2128 391.852 78.9242 369.905 112.935 353.894Z" fill="white"/>
<path opacity="0.2" d="M129.491 350.014C74.9951 350.897 64.2525 383.818 68.1523 410.817C69.5005 416.448 77.2132 421.631 93.6968 394.646L80.1852 392.287L97.7126 389.304L105.28 378.78L92.4355 375.754L110.557 373.973C116.372 365.608 122.695 357.606 129.491 350.014Z" fill="white"/>
<path d="M443.839 295.567C429.53 305.483 413.395 312.345 401.463 325.649C379.137 350.506 378.615 390.477 396.157 418.909C413.699 447.342 446.289 464.381 479.518 468.304C514.311 472.401 550.903 462.803 578.231 440.798C605.558 418.793 622.941 384.556 622.926 349.522C622.912 314.488 604.949 279.642 575.578 260.504C548.772 243.045 510.267 238.079 483.374 258.043C469.775 268.176 460.714 283.044 447.13 293.163C446.028 294.018 444.941 294.799 443.839 295.567Z" fill="#F16623"/>
<path opacity="0.1" d="M449.667 441.218C449.667 440.986 449.667 440.755 449.769 440.509C450.953 432.775 454.522 425.602 459.978 419.987C465.435 414.373 472.508 410.595 480.213 409.181C494.043 406.542 507.295 401.479 519.356 394.226C527.895 389.072 535.97 382.746 545.553 379.952C554.857 377.256 564.803 377.807 573.751 381.516C565.705 373.061 551.903 369.355 540.856 373.162C548.496 361.494 555.223 348.914 557.847 335.219C560.471 321.524 558.616 306.497 550.337 295.263C546.813 290.476 542.27 286.529 537.035 283.707C531.799 280.884 526.003 279.256 520.062 278.939C514.121 278.622 508.183 279.624 502.676 281.873C497.17 284.123 492.231 287.563 488.216 291.947C480.025 300.894 475.4 313.474 470.022 324.346C466.165 332.149 462.164 340.141 455.8 346.062C446.188 355.037 432.372 358.266 422.456 366.85C411.162 376.593 406.291 392.156 406.233 407.053C406.416 417.104 407.877 427.091 410.582 436.774C422.258 447.908 436.189 456.414 451.436 461.717C449.242 455.118 448.636 448.095 449.667 441.218Z" fill="black"/>
<path d="M604.196 344.773C603.763 320.587 594.75 297.338 578.76 279.165C562.77 260.992 540.842 249.075 516.877 245.535C513.571 245.876 510.292 246.442 507.063 247.228C532.253 248.567 556.002 259.379 573.532 277.492C591.063 295.605 601.076 319.675 601.557 344.86C602.195 377.462 586.233 410.672 558.848 433.733C537.391 451.801 508.875 463.773 477.546 468.087C478.213 468.174 478.88 468.275 479.547 468.348C482.374 468.681 485.201 468.912 488.028 469.071C515.877 463.672 541.074 452.22 560.587 435.775C588.509 412.177 604.833 378.157 604.196 344.773Z" fill="white"/>
<path d="M437.025 465.119L440.621 472.213C445.68 467.537 446.608 463.758 446.608 463.758C444.955 457.968 443.056 452.076 442.099 449.209C441.607 453.19 438.881 456.636 437.75 460.53C437.321 462.024 437.078 463.566 437.025 465.119Z" fill="#37474F"/>
<path d="M437.199 472.386L440.621 472.213L437.025 465.119C436.924 467.522 437.127 469.954 437.199 472.386Z" fill="black"/>
<path d="M439.794 440.827C438.559 439.034 437.141 437.375 435.561 435.876C436.418 438.982 436.393 442.265 435.489 445.358C434.43 449.47 432.488 453.335 431.531 457.461C430.357 462.513 430.617 467.928 428.486 472.633C427.437 474.923 425.869 476.939 423.907 478.522C421.945 480.104 419.642 481.211 417.178 481.753C415.355 482.25 413.409 482.016 411.756 481.102C411.072 480.601 410.565 479.896 410.307 479.089C409.237 481.333 407.934 483.458 406.421 485.43C404.725 487.602 402.637 490.005 403.087 492.669C403.373 493.777 403.977 494.778 404.824 495.549C405.671 496.32 406.725 496.829 407.856 497.012C410.127 497.33 412.44 497.137 414.627 496.447C419.432 495.408 424.018 493.542 428.182 490.931C432.372 488.253 435.431 484.132 436.779 479.35C437.276 477.04 437.457 474.673 437.315 472.314C437.243 469.882 437.04 467.45 437.141 465.076C437.189 463.523 437.427 461.981 437.852 460.487C438.997 456.592 441.723 453.147 442.201 449.166C442.201 448.949 442.273 448.746 442.288 448.529C442.306 445.761 441.432 443.061 439.794 440.827Z" fill="black"/>
<path opacity="0.1" d="M439.794 440.827C438.559 439.034 437.141 437.375 435.561 435.876C436.418 438.982 436.393 442.265 435.489 445.358C434.43 449.47 432.488 453.335 431.531 457.461C430.357 462.513 430.617 467.928 428.486 472.633C427.437 474.923 425.869 476.939 423.907 478.522C421.945 480.104 419.642 481.211 417.178 481.753C415.355 482.25 413.409 482.016 411.756 481.102C411.072 480.601 410.565 479.896 410.307 479.089C409.237 481.333 407.934 483.458 406.421 485.43C404.725 487.602 402.637 490.005 403.087 492.669C403.373 493.777 403.977 494.778 404.824 495.549C405.671 496.32 406.725 496.829 407.856 497.012C410.127 497.33 412.44 497.137 414.627 496.447C419.432 495.408 424.018 493.542 428.182 490.931C432.372 488.253 435.431 484.132 436.779 479.35C437.276 477.04 437.457 474.673 437.315 472.314C437.243 469.882 437.04 467.45 437.141 465.076C437.189 463.523 437.427 461.981 437.852 460.487C438.997 456.592 441.723 453.147 442.201 449.166C442.201 448.949 442.273 448.746 442.288 448.529C442.306 445.761 441.432 443.061 439.794 440.827Z" fill="black"/>
<path d="M417.179 481.753C419.651 481.225 421.966 480.13 423.941 478.555C425.916 476.98 427.497 474.967 428.559 472.676C430.69 467.971 430.429 462.542 431.604 457.504C432.56 453.378 434.503 449.513 435.561 445.402C436.466 442.309 436.491 439.026 435.634 435.919L434.402 434.703C428.284 437.874 421.354 440.494 415.758 444.519C415.847 451.65 415.353 458.777 414.279 465.829C413.523 470.42 412.127 474.884 410.133 479.089C410.391 479.896 410.899 480.601 411.583 481.102C412.425 481.578 413.353 481.881 414.315 481.992C415.276 482.104 416.249 482.023 417.179 481.753Z" fill="#AB6160"/>
<path d="M396.331 462.933C395.316 468.84 390.808 480.841 390.808 480.841C390.808 480.841 411.988 481.695 412.452 480.725L418.686 471.113L396.331 462.933Z" fill="#C48281"/>
<path d="M459.772 322.653L405.726 352.721C400.828 355.451 396.91 359.646 394.523 364.714C392.136 369.783 391.399 375.471 392.417 380.98L402.913 437.439L394.316 464.743C401.739 474.674 418.773 475.18 418.773 475.18C428.284 456.143 435.257 448.051 440.65 432.112C446.043 416.173 449.653 405.156 449.653 405.156L494.595 392.909C504.858 390.118 514.049 384.321 520.982 376.265C527.915 368.209 532.272 358.264 533.492 347.712C534.245 340.937 534.289 336.304 534.289 336.304L459.772 322.653Z" fill="black"/>
<path opacity="0.2" d="M456.104 340.43C456.098 346.45 458.229 352.278 462.121 356.876L428.052 378.113C422.479 381.621 418.361 387.018 416.454 393.314L402.957 437.382L415.134 388.291C416.534 382.643 420.094 377.768 425.051 374.711L456.177 355.587C452.538 346.612 456.104 340.43 456.104 340.43Z" fill="#959595"/>
<path d="M402.29 508.159L402.797 516.092C409.306 513.776 411.64 510.663 411.64 510.663C412.409 504.699 412.974 498.532 413.221 495.521C411.205 498.995 407.422 501.094 404.754 504.207C403.774 505.419 402.947 506.746 402.29 508.159Z" fill="#37474F"/>
<path d="M399.593 514.919L402.797 516.092L402.289 508.159C401.231 510.33 400.477 512.647 399.593 514.919Z" fill="black"/>
<path d="M414.409 486.907C413.973 484.775 413.317 482.694 412.452 480.696C412.031 483.889 410.72 486.899 408.668 489.382C406.059 492.755 402.768 495.535 400.26 498.966C397.186 503.135 395.302 508.231 391.489 511.72C389.608 513.409 387.36 514.637 384.922 515.308C382.483 515.979 379.922 516.074 377.441 515.585C375.571 515.327 373.875 514.351 372.715 512.864C372.265 512.136 372.062 511.284 372.135 510.432C370.269 512.083 368.238 513.538 366.075 514.775C363.654 516.107 360.783 517.496 360.131 520.175C359.954 521.305 360.112 522.463 360.586 523.505C361.06 524.546 361.829 525.427 362.798 526.038C364.763 527.221 366.967 527.953 369.25 528.18C374.079 529.115 379.034 529.199 383.892 528.426C388.785 527.612 393.21 525.038 396.331 521.188C397.698 519.261 398.796 517.157 399.593 514.934C400.477 512.661 401.26 510.345 402.289 508.173C402.948 506.766 403.775 505.443 404.754 504.236C407.349 501.109 411.205 499.009 413.221 495.55C413.342 495.373 413.454 495.189 413.554 494.999C414.704 492.464 415.004 489.626 414.409 486.907Z" fill="black"/>
<path d="M377.441 515.585C379.922 516.074 382.483 515.979 384.922 515.308C387.36 514.637 389.608 513.409 391.489 511.72C395.302 508.231 397.186 503.135 400.26 498.966C402.768 495.535 406.059 492.755 408.668 489.382C410.72 486.898 412.031 483.889 412.452 480.696C412.249 480.161 412.032 479.625 411.8 479.104C404.942 479.61 397.52 479.277 390.807 480.812C388.111 487.411 384.887 493.782 381.167 499.864C378.663 503.789 375.623 507.346 372.135 510.432C372.061 511.283 372.265 512.136 372.715 512.864C373.875 514.351 375.571 515.327 377.441 515.585Z" fill="#C48281"/>
<path d="M515.167 242.885C523.968 222.456 524.488 199.413 516.616 178.608C514.094 172.021 510.527 165.579 504.685 161.569C497.204 156.531 487.52 156.603 478.59 156.864C473.805 156.994 468.92 157.154 464.426 158.804C462.185 159.564 460.162 160.855 458.531 162.567C456.899 164.279 455.709 166.361 455.06 168.634C449.174 167.533 443.23 172.195 441.636 177.957C440.041 183.719 442.129 190.03 445.796 194.764C449.464 199.498 454.495 202.929 459.641 206.042C456.553 207.649 454.263 211.398 453.176 214.728C452.112 218.074 452.371 221.7 453.9 224.862C451.123 224.896 448.423 225.777 446.161 227.386C443.899 228.995 442.184 231.256 441.244 233.866C440.487 236.483 440.369 239.243 440.899 241.915C441.428 244.588 442.591 247.094 444.289 249.226C447.763 253.464 452.536 256.445 457.873 257.71C463.179 258.939 468.659 259.233 474.066 258.578C479.662 263.993 489.927 263.877 496.943 260.504C503.96 257.131 512.05 250.124 515.167 242.885Z" fill="black"/>
<path d="M465.02 229.35H463.57C454.35 229.451 442.708 235.705 437.011 251.76L415.018 294.568L440.273 305.744L454.089 265.354L465.02 229.35Z" fill="#C48281"/>
<path d="M447.333 257.739C445.564 262.791 445.463 268.249 445.187 273.663C444.912 279.077 444.289 285.462 441.839 290.225C439.138 288.357 435.905 287.413 432.623 287.533C429.341 287.653 426.186 288.831 423.63 290.891C421.788 292.435 420.38 294.43 419.542 296.681L440.273 305.86L454.089 265.469L460.888 243.204C457.778 244.61 454.978 246.619 452.651 249.114C450.324 251.609 448.517 254.541 447.333 257.739Z" fill="#AB6160"/>
<path d="M440.505 298.028C439.547 295.643 437.994 293.543 435.995 291.927C433.995 290.31 431.615 289.231 429.081 288.791C426.44 288.522 423.774 288.911 421.32 289.921C418.866 290.931 416.701 292.533 415.018 294.582C412.264 297.897 412.699 302.4 414.438 306.352C415.892 309.419 418.365 311.888 421.436 313.339C424.507 314.791 427.988 315.135 431.284 314.314C437.808 312.475 442.969 304.325 440.505 298.028Z" fill="#C48281"/>
<path d="M467.398 228.568C457.641 230.117 451.61 254.727 448.435 264.065C445.173 273.735 449.624 280.742 454.568 286.576C455.469 287.634 456.138 288.868 456.532 290.2C456.927 291.531 457.038 292.93 456.858 294.307L446.608 332.338C474.588 353.083 521.502 343.022 534.231 336.246C534.374 322.96 531.562 309.807 525.996 297.738C522.252 289.947 520.145 281.473 519.806 272.838L519.328 258.868L522.706 234.793L498.408 229.002L476.981 228.047C473.779 228.04 470.58 228.214 467.398 228.568Z" fill="#F16623"/>
<path opacity="0.4" d="M467.398 228.568C457.641 230.117 451.61 254.727 448.435 264.065C445.173 273.735 449.624 280.742 454.568 286.576C455.469 287.634 456.138 288.868 456.532 290.2C456.927 291.531 457.038 292.93 456.858 294.307L446.608 332.338C474.588 353.083 521.502 343.022 534.231 336.246C534.374 322.96 531.562 309.807 525.996 297.738C522.252 289.947 520.145 281.473 519.806 272.838L519.328 258.868L522.706 234.793L498.408 229.002L476.981 228.047C473.779 228.04 470.58 228.214 467.398 228.568Z" fill="#B64B17"/>
<path d="M467.18 338.432C467.18 338.432 467.18 338.432 467.18 338.345V338.273C467.18 338.186 467.18 338.186 467.18 338.099V338.012V337.926L450.638 307.191V307.104V307.018V306.916C450.643 306.887 450.643 306.858 450.638 306.829C450.645 306.796 450.645 306.762 450.638 306.728L450.566 306.627L450.493 306.525L450.421 306.424L450.348 306.337V306.25V306.178H450.276L450.044 305.975H449.957H449.885H449.783L449.682 305.903H449.58H449.479L430.472 295.233H430.371H430.255H430.154H430.052H429.951H429.849H429.748H429.646H429.545H429.197C429.143 295.23 429.089 295.239 429.039 295.259C428.988 295.279 428.943 295.31 428.907 295.349L426.645 297.941H426.718C426.529 298.085 426.515 298.389 426.79 298.896L440.563 326.851C441.488 328.274 442.741 329.455 444.216 330.296L463.222 340.98C464.193 341.53 464.788 341.545 464.86 341.139C464.876 341.196 464.876 341.256 464.86 341.313L467.122 338.722C467.154 338.689 467.179 338.649 467.194 338.606C467.194 338.606 467.194 338.534 467.194 338.505L467.18 338.432ZM424.311 295.132C424.311 295.132 424.383 295.132 424.456 295.132H424.528C424.427 295.118 424.427 295.147 424.311 295.132ZM464.831 341.038C464.818 340.821 464.748 340.612 464.628 340.43C464.735 340.603 464.809 340.795 464.846 340.995C464.846 340.995 464.889 341.024 464.889 341.038H464.831Z" fill="black"/>
<path opacity="0.15" d="M467.18 338.432C467.18 338.432 467.18 338.432 467.18 338.346V338.273C467.18 338.186 467.18 338.186 467.18 338.099V338.013V337.926L450.639 307.191L448.377 309.783L464.904 340.517C465.011 340.69 465.084 340.882 465.122 341.082C465.136 341.141 465.136 341.203 465.124 341.263C465.111 341.323 465.086 341.38 465.049 341.429L467.311 338.838C467.343 338.805 467.368 338.765 467.383 338.722C467.383 338.722 467.383 338.65 467.383 338.621L467.18 338.432Z" fill="white"/>
<path opacity="0.2" d="M450.378 307.018V306.931V306.83C450.382 306.801 450.382 306.771 450.378 306.743C450.384 306.709 450.384 306.675 450.378 306.641L450.305 306.54L450.233 306.439L450.16 306.337L450.088 306.25V306.164V306.091H450.015L449.783 305.889H449.696H449.624H449.522L449.421 305.816H449.319H449.218L430.212 295.147H430.11H429.994H429.893H429.791H429.69H429.588H429.487H429.385H429.284H428.936C428.882 295.143 428.828 295.152 428.778 295.172C428.728 295.192 428.683 295.223 428.646 295.263L426.384 297.854C426.491 297.738 426.679 297.709 426.95 297.767C427.316 297.862 427.668 298.008 427.993 298.201L447 308.871C447.371 309.09 447.73 309.332 448.072 309.595C448.42 309.87 448.783 310.174 449.116 310.478C449.438 310.769 449.738 311.084 450.015 311.419C450.255 311.695 450.464 311.995 450.638 312.316L452.9 309.725L450.378 307.018Z" fill="white"/>
<path d="M532.1 242.885C529.403 238.267 525.866 234.72 520.502 234.315C520.502 234.315 511.803 238.832 511.803 259.331L512.383 310.622C511.122 311.129 509.875 311.665 508.614 312.186C498.017 316.741 486.938 320.082 475.589 322.146C469.664 317.461 462.297 314.97 454.741 315.096L457.554 320.307C452.233 323.695 440.244 317.571 440.244 317.571C439.359 325.056 444.216 332.815 450.638 336.739C457.061 340.662 518.472 334.9 531.491 326.489C540.044 320.944 538.029 268.075 538.029 268.075C538.614 259.276 536.549 250.503 532.1 242.885Z" fill="#C48281"/>
<path d="M427.24 302.067C426.824 304.083 426.587 306.132 426.529 308.19C427.013 313.093 429.097 317.701 432.459 321.306C433.152 322.101 434.027 322.717 435.01 323.101C435.493 323.279 436.013 323.329 436.521 323.248C437.028 323.167 437.507 322.957 437.91 322.638C438.626 321.769 438.993 320.665 438.939 319.54C439.094 317.881 439.002 316.207 438.664 314.575C438.317 312.928 437.385 311.462 436.04 310.449C434.989 309.847 433.876 309.361 432.72 309.001C431.578 308.522 430.562 307.79 429.748 306.858L427.24 302.067Z" fill="#C48281"/>
<path d="M476.98 218.535V237.905C475.081 239.7 473.269 241.756 473.095 244.319C473.062 245.545 473.368 246.758 473.98 247.822C474.591 248.887 475.483 249.763 476.56 250.355C478.748 251.515 481.307 251.765 483.678 251.05C486.035 250.33 488.193 249.077 489.985 247.388C492.535 245.036 494.589 242.2 496.028 239.045C497.467 235.891 498.261 232.481 498.364 229.017V209.4L476.98 218.535Z" fill="#C48281"/>
<path d="M497.567 209.4C495.552 220.055 491.391 229.292 476.98 232.563V218.492L497.567 209.4Z" fill="#AB6160"/>
<path d="M492.565 198.166C492.348 199.873 492.348 201.599 492.565 203.306C492.801 204.594 493.446 205.772 494.406 206.664C494.873 207.088 495.438 207.39 496.05 207.544C496.662 207.698 497.302 207.699 497.915 207.547C497.492 205.863 497.74 204.081 498.607 202.577C499.474 201.072 500.891 199.961 502.562 199.479C504.232 198.997 506.024 199.181 507.561 199.992C509.098 200.803 510.26 202.178 510.803 203.827C511.138 205.01 511.211 206.252 511.019 207.467C510.826 208.682 510.371 209.84 509.686 210.863C508.283 212.891 506.427 214.566 504.264 215.756C503.021 216.222 501.655 216.239 500.4 215.806C499.145 215.372 498.082 214.515 497.393 213.382C491.115 221.894 480.054 228.553 469.369 228.104C466.444 228.069 463.59 227.195 461.149 225.586C456.988 222.69 456.51 217.942 455.8 213.324C454.81 207.48 454.615 201.529 455.22 195.633C456.191 187.483 459.467 179.39 465.542 173.918C469.905 191.304 486.317 197.11 492.565 198.166Z" fill="#C48281"/>
<path d="M470.282 197.066L463.353 206.346L470.239 208.387L470.282 197.066Z" fill="#AB6160"/>
<path d="M476.618 212.484L471.022 214.511C471.413 215.164 472.007 215.672 472.714 215.957C473.42 216.242 474.201 216.288 474.936 216.089C475.59 215.774 476.115 215.243 476.421 214.586C476.727 213.929 476.797 213.186 476.618 212.484Z" fill="#AB6160"/>
<path opacity="0.3" d="M476.618 212.484L471.022 214.511C471.413 215.164 472.007 215.672 472.714 215.957C473.42 216.242 474.201 216.288 474.936 216.089C475.59 215.774 476.115 215.243 476.421 214.586C476.727 213.929 476.797 213.186 476.618 212.484Z" fill="black"/>
<path d="M473.081 216.103C473.691 216.284 474.34 216.284 474.951 216.103C475.464 215.876 475.901 215.505 476.207 215.034C476.513 214.564 476.676 214.015 476.676 213.454C475.914 213.364 475.145 213.544 474.501 213.961C473.765 214.462 473.255 215.231 473.081 216.103Z" fill="#AB6160"/>
<path d="M480.402 198.528C480.402 199.066 480.188 199.581 479.807 199.961C479.426 200.341 478.91 200.555 478.372 200.555C477.834 200.555 477.317 200.341 476.937 199.961C476.556 199.581 476.342 199.066 476.342 198.528C476.342 197.991 476.556 197.475 476.937 197.095C477.317 196.715 477.834 196.501 478.372 196.501C478.91 196.501 479.426 196.715 479.807 197.095C480.188 197.475 480.402 197.991 480.402 198.528Z" fill="black"/>
<path d="M463.381 197.804C463.379 198.205 463.257 198.596 463.031 198.928C462.806 199.26 462.487 199.517 462.115 199.668C461.743 199.819 461.335 199.856 460.942 199.775C460.549 199.694 460.188 199.498 459.907 199.213C459.625 198.927 459.434 198.565 459.358 198.171C459.283 197.777 459.326 197.37 459.482 197.001C459.639 196.632 459.901 196.317 460.236 196.097C460.572 195.876 460.965 195.76 461.366 195.763C461.633 195.765 461.896 195.819 462.142 195.923C462.388 196.027 462.61 196.178 462.797 196.367C462.984 196.557 463.132 196.781 463.233 197.028C463.333 197.274 463.383 197.538 463.381 197.804Z" fill="black"/>
<path d="M461.453 189.741L456.945 192.824C456.749 192.267 456.729 191.663 456.887 191.094C457.045 190.524 457.374 190.017 457.829 189.639C458.383 189.319 459.016 189.159 459.656 189.176C460.296 189.194 460.918 189.39 461.453 189.741Z" fill="black"/>
<path d="M478.807 189.567L483.287 192.68C483.481 192.126 483.502 191.526 483.346 190.959C483.191 190.393 482.867 189.887 482.417 189.509C481.871 189.177 481.243 189.006 480.604 189.016C479.965 189.027 479.342 189.218 478.807 189.567Z" fill="black"/>
</g>
<defs>
<clipPath id="clip0_514_7852">
<rect width="672" height="593" fill="white" transform="translate(0 0.239258)"/>
</clipPath>
</defs>
</svg>
