<svg width="46" height="46" viewBox="0 0 46 46" fill="none" xmlns="http://www.w3.org/2000/svg">
<g clip-path="url(#clip0_514_8067)">
<rect x="0.882812" y="0.400391" width="45.0201" height="44.3172" rx="10.7166" fill="#F16623"/>
<path d="M27.9745 34.8899H18.8116C16.848 34.8877 14.9655 34.1069 13.577 32.7187C12.1885 31.3306 11.4075 29.4484 11.4053 27.4853V18.3246C11.4075 16.3614 12.1885 14.4793 13.577 13.0911C14.9655 11.703 16.848 10.9221 18.8116 10.9199H27.9745C29.9381 10.9221 31.8206 11.703 33.2091 13.0911C34.5976 14.4793 35.3786 16.3614 35.3808 18.3246V27.4853C35.3786 29.4484 34.5976 31.3306 33.2091 32.7187C31.8206 34.1069 29.9381 34.8877 27.9745 34.8899ZM18.8116 13.5919C17.5567 13.5936 16.3536 14.0927 15.4662 14.9799C14.5788 15.8671 14.0795 17.0699 14.0779 18.3246V27.4853C14.0795 28.74 14.5788 29.9428 15.4662 30.83C16.3536 31.7171 17.5567 32.2163 18.8116 32.218H27.9745C29.2294 32.2163 30.4325 31.7171 31.3199 30.83C32.2073 29.9428 32.7066 28.74 32.7082 27.4853V18.3246C32.7066 17.0699 32.2073 15.8671 31.3199 14.9799C30.4325 14.0927 29.2294 13.5936 27.9745 13.5919H18.8116Z" fill="white"/>
<path d="M23.3916 29.0313C22.1794 29.0313 20.9944 28.6719 19.9866 27.9986C18.9787 27.3253 18.1931 26.3684 17.7292 25.2487C17.2654 24.1291 17.144 22.897 17.3805 21.7084C17.6169 20.5198 18.2007 19.428 19.0578 18.5711C19.9149 17.7141 21.007 17.1305 22.1959 16.8941C23.3848 16.6577 24.6171 16.779 25.737 17.2428C26.8569 17.7066 27.8141 18.4919 28.4876 19.4996C29.161 20.5073 29.5205 21.6919 29.5205 22.9038C29.5188 24.5284 28.8725 26.086 27.7235 27.2348C26.5745 28.3835 25.0165 29.0296 23.3916 29.0313ZM23.3916 19.1837C22.6551 19.1837 21.9352 19.402 21.3229 19.8111C20.7106 20.2202 20.2334 20.8017 19.9517 21.482C19.6699 22.1622 19.5963 22.9108 19.7401 23.6329C19.884 24.355 20.2388 25.0182 20.7597 25.5387C21.2806 26.0592 21.9442 26.4136 22.6665 26.5569C23.3889 26.7003 24.1375 26.6263 24.8178 26.3443C25.4981 26.0622 26.0794 25.5848 26.4883 24.9724C26.8971 24.36 27.1151 23.6401 27.1147 22.9038C27.1136 21.9172 26.7209 20.9713 26.0229 20.2738C25.3248 19.5763 24.3785 19.1842 23.3916 19.1837Z" fill="white"/>
<path d="M30.8651 16.4213C30.8651 16.6262 30.8044 16.8264 30.6906 16.9967C30.5768 17.167 30.4151 17.2997 30.2259 17.3781C30.0366 17.4565 29.8284 17.477 29.6275 17.437C29.4266 17.3971 29.2421 17.2985 29.0973 17.1536C28.9524 17.0088 28.8538 16.8243 28.8138 16.6234C28.7739 16.4225 28.7944 16.2143 28.8728 16.025C28.9512 15.8358 29.0839 15.6741 29.2542 15.5603C29.4245 15.4465 29.6247 15.3857 29.8295 15.3857C29.9656 15.3855 30.1004 15.4121 30.2262 15.464C30.3519 15.516 30.4662 15.5922 30.5624 15.6884C30.6587 15.7847 30.7349 15.8989 30.7869 16.0247C30.8388 16.1505 30.8654 16.2853 30.8651 16.4213Z" fill="white"/>
</g>
<defs>
<clipPath id="clip0_514_8067">
<rect width="45.0201" height="45.0097" fill="white" transform="translate(0.882812 0.400391)"/>
</clipPath>
</defs>
</svg>
