<svg width="158" height="52" viewBox="0 0 158 52" fill="none" xmlns="http://www.w3.org/2000/svg">
<g clip-path="url(#clip0_514_7827)">
<path d="M84.0317 35.7096L67.8082 51.0721H51.8984C56.746 46.4895 61.1722 42.3426 65.5567 38.1516C69.8929 34.0068 74.1896 29.818 78.6772 25.4797C74.5078 17.3397 70.3054 9.10741 65.8288 0.36028C71.2512 0.140282 76.2699 0.283283 81.5871 0.252483L89.5332 15.2124L105.142 0.426277H121.087L94.7362 25.5523C99.057 33.9122 103.354 42.2216 107.87 50.9599C104.934 51.4263 102.384 51.1513 99.8536 51.2041C97.3608 51.2547 94.8678 51.2041 92.1292 51.2041L84.0317 35.7096Z" fill="#F16623"/>
<path d="M112.966 50.7421C117.445 33.9518 121.915 17.1901 126.435 0.239258H139.806C138.029 6.87001 136.258 13.4215 134.515 19.9775C132.784 26.4982 131.079 33.0234 129.299 39.7773C132.518 40.4571 135.676 40.0193 138.799 40.1007C141.886 40.1799 144.978 40.1183 148.07 40.1183H158C156.929 43.8847 155.97 47.2661 155.009 50.6453C152.547 51.3471 117.017 51.4813 112.966 50.7421Z" fill="#231F20"/>
<path d="M11.7951 0.239258H62.4034C59.4892 12.7792 56.6013 25.2025 53.7002 37.6874H21.0667C21.962 33.8638 22.8222 30.1634 23.7132 26.3839H43.0243C44.1742 21.4537 45.3043 16.6159 46.4323 11.7826C45.2538 11.3954 26.4058 11.2414 22.4426 11.578C19.3704 24.7163 16.2477 37.914 13.2062 51.2393H0C1.09722 45.4885 2.59823 39.8873 3.871 34.2422C5.14378 28.597 6.46703 22.9915 7.77931 17.3683C9.10036 11.7034 10.4346 6.03841 11.7951 0.239258Z" fill="#231F20"/>
</g>
<defs>
<clipPath id="clip0_514_7827">
<rect width="158" height="51" fill="white" transform="translate(0 0.239258)"/>
</clipPath>
</defs>
</svg>
