<svg width="46" height="46" viewBox="0 0 46 46" fill="none" xmlns="http://www.w3.org/2000/svg">
<g clip-path="url(#clip0_514_8061)">
<rect x="0.208984" y="0.400391" width="45.0201" height="44.3172" rx="10.7166" fill="#F16623"/>
<path d="M30.7461 14.7702C30.3062 14.2941 29.7693 13.918 29.1716 13.6673C28.5739 13.4165 27.9293 13.2969 27.2814 13.3165C24.6718 13.4006 22.2388 14.997 22.5287 19.089C22.5287 19.089 18.5976 20.2884 12.4792 14.4677C12.4792 14.4677 10.5126 17.6774 13.992 20.6981C13.992 20.6981 13.015 20.969 11.7102 20.2422C11.7102 20.2422 11.0105 22.952 15.4922 25.0043C15.4922 25.0043 13.9815 25.4244 13.2965 25.0043C13.2965 25.0043 13.6957 27.8842 17.7088 28.5753C17.7088 28.5753 15.6413 30.6276 10.75 30.5709C10.75 30.5709 20.9214 35.7741 27.9789 29.0879C33.0216 24.3111 32.3156 17.94 32.3156 17.94C33.3281 17.5586 34.169 16.8246 34.6835 15.873C34.6835 15.873 33.0026 16.4002 32.0298 16.3141C32.0298 16.3141 33.8851 15.1588 34.0259 13.7934C34.0364 13.785 32.4438 14.913 30.7461 14.7702Z" fill="white"/>
</g>
<defs>
<clipPath id="clip0_514_8061">
<rect width="45.0201" height="45.0097" fill="white" transform="translate(0.208984 0.400391)"/>
</clipPath>
</defs>
</svg>
